<svg version="1.1" viewBox="0.0 0.0 960.0 720.0" fill="none" stroke="none" stroke-linecap="square" stroke-miterlimit="10" xmlns:xlink="http://www.w3.org/1999/xlink" xmlns="http://www.w3.org/2000/svg"><clipPath id="p.0"><path d="m0 0l960.0 0l0 720.0l-960.0 0l0 -720.0z" clip-rule="nonzero"/></clipPath><g clip-path="url(#p.0)"><path fill="#000000" fill-opacity="0.0" d="m0 0l960.0 0l0 720.0l-960.0 0z" fill-rule="evenodd"/><path fill="#351c75" d="m212.92955 85.62001l468.97552 0l21.11853 21.11853l0 105.59013l0 0l-511.2126 0l0 0l0 -105.59013z" fill-rule="evenodd"/><path stroke="#ffffff" stroke-width="2.0" stroke-linejoin="round" stroke-linecap="butt" d="m212.92955 85.62001l468.97552 0l21.11853 21.11853l0 105.59013l0 0l-511.2126 0l0 0l0 -105.59013z" fill-rule="evenodd"/><path fill="#351c75" d="m681.9051 486.70865l-468.97552 0l-21.11853 -21.11853l0 -105.59012l0 0l511.2126 0l0 0l0 105.59012z" fill-rule="evenodd"/><path stroke="#ffffff" stroke-width="2.0" stroke-linejoin="round" stroke-linecap="butt" d="m681.9051 486.70865l-468.97552 0l-21.11853 -21.11853l0 -105.59012l0 0l511.2126 0l0 0l0 105.59012z" fill-rule="evenodd"/><path fill="#8e7cc3" d="m212.92955 85.61942l354.8023 0l21.11853 21.11853l0 105.590126l0 0l-397.03937 0l0 0l0 -105.590126z" fill-rule="evenodd"/><path stroke="#ffffff" stroke-width="2.0" stroke-linejoin="round" stroke-linecap="butt" d="m212.92955 85.61942l354.8023 0l21.11853 21.11853l0 105.590126l0 0l-397.03937 0l0 0l0 -105.590126z" fill-rule="evenodd"/><path fill="#8e7cc3" d="m212.92955 486.97824l354.8023 0l21.11853 -21.11856l0 -105.59012l0 0l-397.03937 0l0 0l0 105.59012z" fill-rule="evenodd"/><path stroke="#ffffff" stroke-width="2.0" stroke-linejoin="round" stroke-linecap="butt" d="m212.92955 486.97824l354.8023 0l21.11853 -21.11856l0 -105.59012l0 0l-397.03937 0l0 0l0 105.59012z" fill-rule="evenodd"/><path fill="#8e7cc3" d="m191.83202 291.46982l125.37007 0l28.992126 28.992126l0 28.992126l-154.3622 0z" fill-rule="evenodd"/><path stroke="#ffffff" stroke-width="2.0" stroke-linejoin="round" stroke-linecap="butt" d="m191.83202 291.46982l125.37007 0l28.992126 28.992126l0 28.992126l-154.3622 0z" fill-rule="evenodd"/><path fill="#8e7cc3" d="m191.82152 280.88977l125.37007 0l28.992126 -28.992126l0 -28.992126l-154.3622 0z" fill-rule="evenodd"/><path stroke="#ffffff" stroke-width="2.0" stroke-linejoin="round" stroke-linecap="butt" d="m191.82152 280.88977l125.37007 0l28.992126 -28.992126l0 -28.992126l-154.3622 0z" fill-rule="evenodd"/><path fill="#8e7cc3" d="m388.77692 291.46982l171.08661 0l28.992126 28.992126l0 28.992126l0 0l-229.07086 0l0 0l0 -28.992126z" fill-rule="evenodd"/><path stroke="#ffffff" stroke-width="2.0" stroke-linejoin="round" stroke-linecap="butt" d="m388.77692 291.46982l171.08661 0l28.992126 28.992126l0 28.992126l0 0l-229.07086 0l0 0l0 -28.992126z" fill-rule="evenodd"/><path fill="#8e7cc3" d="m388.77692 280.21994l171.08661 0l28.992126 -28.992126l0 -28.992126l0 0l-229.07086 0l0 0l0 28.992126z" fill-rule="evenodd"/><path stroke="#ffffff" stroke-width="2.0" stroke-linejoin="round" stroke-linecap="butt" d="m388.77692 280.21994l171.08661 0l28.992126 -28.992126l0 -28.992126l0 0l-229.07086 0l0 0l0 28.992126z" fill-rule="evenodd"/></g></svg>