<svg version="1.1" viewBox="0.0 0.0 528.0 528.0" fill="none" stroke="none" stroke-linecap="square" stroke-miterlimit="10" xmlns:xlink="http://www.w3.org/1999/xlink" xmlns="http://www.w3.org/2000/svg"><clipPath id="p.0"><path d="m0 0l528.0 0l0 528.0l-528.0 0l0 -528.0z" clip-rule="nonzero"/></clipPath><g clip-path="url(#p.0)"><path fill="#000000" fill-opacity="0.0" d="m0 0l528.0 0l0 528.0l-528.0 0z" fill-rule="evenodd"/><path fill="#351c75" d="m29.512234 63.320793l468.97552 0l21.11856 21.118538l0 105.59012l0 0l-511.21262 0l0 0l0 -105.59012z" fill-rule="evenodd"/><path stroke="#ffffff" stroke-width="2.0" stroke-linejoin="round" stroke-linecap="butt" d="m29.512234 63.320793l468.97552 0l21.11856 21.118538l0 105.59012l0 0l-511.21262 0l0 0l0 -105.59012z" fill-rule="evenodd"/><path fill="#351c75" d="m498.48776 464.40945l-468.97552 0l-21.118534 -21.11853l0 -105.59015l0 0l511.21262 0l0 0l0 105.59015z" fill-rule="evenodd"/><path stroke="#ffffff" stroke-width="2.0" stroke-linejoin="round" stroke-linecap="butt" d="m498.48776 464.40945l-468.97552 0l-21.118534 -21.11853l0 -105.59015l0 0l511.21262 0l0 0l0 105.59015z" fill-rule="evenodd"/><path fill="#8e7cc3" d="m29.512234 63.32021l354.8023 0l21.11853 21.118534l0 105.590126l0 0l-397.03937 0l0 0l0 -105.590126z" fill-rule="evenodd"/><path stroke="#ffffff" stroke-width="2.0" stroke-linejoin="round" stroke-linecap="butt" d="m29.512234 63.32021l354.8023 0l21.11853 21.118534l0 105.590126l0 0l-397.03937 0l0 0l0 -105.590126z" fill-rule="evenodd"/><path fill="#8e7cc3" d="m29.512234 464.67902l354.8023 0l21.11853 -21.11853l0 -105.59012l0 0l-397.03937 0l0 0l0 105.59012z" fill-rule="evenodd"/><path stroke="#ffffff" stroke-width="2.0" stroke-linejoin="round" stroke-linecap="butt" d="m29.512234 464.67902l354.8023 0l21.11853 -21.11853l0 -105.59012l0 0l-397.03937 0l0 0l0 105.59012z" fill-rule="evenodd"/><path fill="#8e7cc3" d="m8.414699 269.1706l125.37008 0l28.992126 28.992126l0 28.992126l-154.3622 0z" fill-rule="evenodd"/><path stroke="#ffffff" stroke-width="2.0" stroke-linejoin="round" stroke-linecap="butt" d="m8.414699 269.1706l125.37008 0l28.992126 28.992126l0 28.992126l-154.3622 0z" fill-rule="evenodd"/><path fill="#8e7cc3" d="m8.4042 258.59055l125.37008 0l28.992126 -28.992126l0 -28.992126l-154.3622 0z" fill-rule="evenodd"/><path stroke="#ffffff" stroke-width="2.0" stroke-linejoin="round" stroke-linecap="butt" d="m8.4042 258.59055l125.37008 0l28.992126 -28.992126l0 -28.992126l-154.3622 0z" fill-rule="evenodd"/><path fill="#8e7cc3" d="m205.35957 269.1706l171.08662 0l28.992126 28.992126l0 28.992126l0 0l-229.07088 0l0 0l0 -28.992126z" fill-rule="evenodd"/><path stroke="#ffffff" stroke-width="2.0" stroke-linejoin="round" stroke-linecap="butt" d="m205.35957 269.1706l171.08662 0l28.992126 28.992126l0 28.992126l0 0l-229.07088 0l0 0l0 -28.992126z" fill-rule="evenodd"/><path fill="#8e7cc3" d="m205.35957 257.92072l171.08662 0l28.992126 -28.992111l0 -28.992126l0 0l-229.07088 0l0 0l0 28.992126z" fill-rule="evenodd"/><path stroke="#ffffff" stroke-width="2.0" stroke-linejoin="round" stroke-linecap="butt" d="m205.35957 257.92072l171.08662 0l28.992126 -28.992111l0 -28.992126l0 0l-229.07088 0l0 0l0 28.992126z" fill-rule="evenodd"/></g></svg>